# Blender 4.3.2
# www.blender.org
mtllib grass.mtl
o Plane
v -0.009546 0.056500 -0.009546
v -0.009546 -0.056500 -0.009546
v 0.009546 0.056500 0.009546
v 0.009546 -0.056500 0.009546
vn -0.7071 -0.0000 0.7071
vt 0.000000 0.000000
vt 1.000000 0.000000
vt 1.000000 1.000000
vt 0.000000 1.000000
s 0
usemtl Material.001
f 1/1/1 2/2/1 4/3/1 3/4/1
o Plane.001
v -0.009546 0.056500 0.009546
v -0.009546 -0.056500 0.009546
v 0.009546 0.056500 -0.009546
v 0.009546 -0.056500 -0.009546
vn 0.7071 -0.0000 0.7071
vt 0.000000 0.000000
vt 1.000000 0.000000
vt 1.000000 1.000000
vt 0.000000 1.000000
s 0
usemtl Material.001
f 5/5/2 6/6/2 8/7/2 7/8/2
